<svg xmlns="http://www.w3.org/2000/svg" viewBox="0 0 256 256" role="img" aria-labelledby="title desc">
  <title id="title">LOKI THE SUN GOD dashboard icon</title>
  <desc id="desc">A custom Bart-inspired yellow spiky dashboard mark with a red shirt and skateboard check motif.</desc>
  <rect width="256" height="256" rx="46" fill="#0c0d10"/>
  <circle cx="128" cy="118" r="86" fill="#15171b" stroke="#2b2d31" stroke-width="6"/>
  <path d="M73 102 83 48l21 42 15-51 20 51 20-48 14 54 30-30-16 66c-5 50-39 76-78 70-35-5-59-33-56-69l2-23z" fill="#f6c244" stroke="#221b10" stroke-width="7" stroke-linejoin="round"/>
  <path d="M78 148c20 19 74 24 105-2-6 37-30 61-67 56-24-4-39-21-38-54z" fill="#e24732" stroke="#221b10" stroke-width="7" stroke-linejoin="round"/>
  <circle cx="104" cy="116" r="8" fill="#221b10"/>
  <circle cx="153" cy="116" r="8" fill="#221b10"/>
  <path d="M105 147c15 10 32 11 49 1" fill="none" stroke="#221b10" stroke-width="7" stroke-linecap="round"/>
  <path d="M67 206c47 19 90 20 130 0" fill="none" stroke="#22c55e" stroke-width="16" stroke-linecap="round"/>
  <path d="m102 195 22 22 44-49" fill="none" stroke="#ffffff" stroke-width="13" stroke-linecap="round" stroke-linejoin="round"/>
  <circle cx="86" cy="220" r="10" fill="#f6c244" stroke="#221b10" stroke-width="5"/>
  <circle cx="179" cy="220" r="10" fill="#f6c244" stroke="#221b10" stroke-width="5"/>
</svg>
